# xmcd
#
# Track frame offsets:
#	182
#	7812
#	16295
#	26217
#	34755
#	42630
#	50465
#	57377
#
# Disc length: 916 seconds
#
# Revision: 1
# Processed by: cddbd v1.5.2PL0 Copyright (c) Steve Scherf et al.
# Submitted via: EasyCDDAExtractor 11.0.3.2
#
DISCID=62039208
DTITLE=Stringbean - Front Porch Funnies
DYEAR=1993
DGENRE=Country
TTITLE0=Run rabbit run
TTITLE1=Good old mountain dew
TTITLE2=There'll be moonshine in them old Kentucky hills
TTITLE3=I'm the man that rode the mule around the world
TTITLE4=How many biquits can you eat
TTITLE5=Chewing gum
TTITLE6=Goodbye sweet thing
TTITLE7=Here rattler here
EXTD=
EXTT0=
EXTT1=
EXTT2=
EXTT3=
EXTT4=
EXTT5=
EXTT6=
EXTT7=
PLAYORDER=
